<svg width="24" height="12" viewBox="0 0 24 12" fill="none" xmlns="http://www.w3.org/2000/svg">
<path d="M10.605 11.25H7.57499L3.86999 6.24H3.02999V10.35L4.55999 10.695V11.25H-6.04987e-06V10.695L1.45499 10.35V0.899999L-6.04987e-06 0.554999V-8.9407e-07H4.51499C6.10499 -8.9407e-07 7.24499 0.239999 7.93499 0.72C8.62499 1.2 8.96999 1.97 8.96999 3.03C8.96999 4.09 8.65999 4.88 8.03999 5.4C7.41999 5.91 6.60499 6.165 5.59499 6.165L8.96999 10.365L10.605 10.695V11.25ZM3.02999 0.599999V5.655H4.70999C5.55999 5.655 6.18999 5.455 6.59999 5.055C7.01999 4.655 7.22999 4.015 7.22999 3.135C7.22999 2.245 7.02499 1.6 6.61499 1.2C6.20499 0.8 5.56999 0.599999 4.70999 0.599999H3.02999ZM23.3052 11.25H20.2752L16.5702 6.24H15.7302V10.35L17.2602 10.695V11.25H12.7002V10.695L14.1552 10.35V0.899999L12.7002 0.554999V-8.9407e-07H17.2152C18.8052 -8.9407e-07 19.9452 0.239999 20.6352 0.72C21.3252 1.2 21.6702 1.97 21.6702 3.03C21.6702 4.09 21.3602 4.88 20.7402 5.4C20.1202 5.91 19.3052 6.165 18.2952 6.165L21.6702 10.365L23.3052 10.695V11.25ZM15.7302 0.599999V5.655H17.4102C18.2602 5.655 18.8902 5.455 19.3002 5.055C19.7202 4.655 19.9302 4.015 19.9302 3.135C19.9302 2.245 19.7252 1.6 19.3152 1.2C18.9052 0.8 18.2702 0.599999 17.4102 0.599999H15.7302Z" fill="white"/>
</svg>
