<svg width="57" height="45" viewBox="0 0 57 45" fill="none" xmlns="http://www.w3.org/2000/svg">
<path d="M0 0H55V45H0V0Z" fill="#1C1B26"/>
<path d="M25.955 28H22.925L19.22 22.99H18.38V27.1L19.91 27.445V28H15.35V27.445L16.805 27.1V17.65L15.35 17.305V16.75H19.865C21.455 16.75 22.595 16.99 23.285 17.47C23.975 17.95 24.32 18.72 24.32 19.78C24.32 20.84 24.01 21.63 23.39 22.15C22.77 22.66 21.955 22.915 20.945 22.915L24.32 27.115L25.955 27.445V28ZM18.38 17.35V22.405H20.06C20.91 22.405 21.54 22.205 21.95 21.805C22.37 21.405 22.58 20.765 22.58 19.885C22.58 18.995 22.375 18.35 21.965 17.95C21.555 17.55 20.92 17.35 20.06 17.35H18.38ZM38.6552 28H35.6252L31.9202 22.99H31.0802V27.1L32.6102 27.445V28H28.0502V27.445L29.5052 27.1V17.65L28.0502 17.305V16.75H32.5652C34.1552 16.75 35.2952 16.99 35.9852 17.47C36.6752 17.95 37.0202 18.72 37.0202 19.78C37.0202 20.84 36.7102 21.63 36.0902 22.15C35.4702 22.66 34.6552 22.915 33.6452 22.915L37.0202 27.115L38.6552 27.445V28ZM31.0802 17.35V22.405H32.7602C33.6102 22.405 34.2402 22.205 34.6502 21.805C35.0702 21.405 35.2802 20.765 35.2802 19.885C35.2802 18.995 35.0752 18.35 34.6652 17.95C34.2552 17.55 33.6202 17.35 32.7602 17.35H31.0802Z" fill="white"/>
</svg>
